<svg xmlns="http://www.w3.org/2000/svg" viewBox="0 0 48 48">
  <path d="M47 38h-1c0-1.23.12-2.55-1.39-3.52C52.51 24.86 45.76 10 33 10S13.48 24.85 21.39 34.48C19.86 35.46 20 36.9 20 38h-1a1 1 0 0 0-1 1v5a4 4 0 0 0 4 4h22a4 4 0 0 0 4-4v-5a1 1 0 0 0-1-1zM33 12a13 13 0 0 1 9.36 22H39.3c8.87-6.23 4.29-20-6.3-20s-15.17 13.77-6.3 20h-3.06A13 13 0 0 1 33 12zm0 22a9 9 0 1 1 9-9 9 9 0 0 1-9 9zm-9.78 2H43a1 1 0 0 1 1 1v1H22c0-1.11-.15-2 1.22-2zm13.5 4c-.63 2.53 0 2-6.16 2-.92 0-1-.81-1.28-2zM46 44a2 2 0 0 1-2 2H22a2 2 0 0 1-2-2v-4h7.22l.43 1.73A3 3 0 0 0 30.56 44h4.88a3 3 0 0 0 2.91-2.27l.43-1.73H46zM15 26h-1v-9a1 1 0 0 0-1-1c0-13.66.29-14-.86-15.14-2.8-2.8-9.09 1.62-9.13 6v9.15a1 1 0 0 0-1 1v9H1a1 1 0 0 0-1 1V44a4 4 0 0 0 4 4h8a4 4 0 0 0 4-4V27a1 1 0 0 0-1-1zM6.65 3.65c1.08-1.08 3.23-2.21 4.07-1.37.64.64.19 2.51-1.37 4.07s-3.43 2-4.07 1.37-.19-2.51 1.37-4.07zM5 9.82c2 .65 4.29-.58 5.76-2.06.34-.33.24-1.66.24 8.24H5zM4 18h8v8H4zm10 10v2H2v-2zm-2 18H4a2 2 0 0 1-2-2V32h12v12a2 2 0 0 1-2 2z"/>
</svg>
