<?xml version="1.0" encoding="utf-8"?>
<!-- Generator: Adobe Illustrator 16.0.0, SVG Export Plug-In . SVG Version: 6.00 Build 0)  -->
<!DOCTYPE svg PUBLIC "-//W3C//DTD SVG 1.1//EN" "http://www.w3.org/Graphics/SVG/1.1/DTD/svg11.dtd">
<svg version="1.1" id="Layer_1" xmlns="http://www.w3.org/2000/svg" xmlns:xlink="http://www.w3.org/1999/xlink" x="0px" y="0px"
	 width="128px" height="128px" viewBox="0 0 128 128" enable-background="new 0 0 128 128" xml:space="preserve">
<g>
	<g>
		<polygon fill="#282D33" points="44.867,34.311 41.648,31.922 63.357,2.665 65.645,4.974 68.222,4.974 69.203,8.933 74.297,25.51 
			70.465,26.688 65.326,9.951 65.086,8.983 63.973,8.983 63.794,8.803 		"/>
	</g>
	<g>
		<g>
			<path fill="#282D33" d="M117.945,116.021h-12.808v-4.008h9.214l9.177-83.651H64.976c0.562,4.825,1.266,10.068,1.948,15.162
				c0.795,5.923,1.616,12.049,2.216,17.517l-3.985,0.437c-0.594-5.42-1.412-11.521-2.203-17.421
				c-0.793-5.91-1.612-12.022-2.212-17.48l-0.243-2.223H128L117.945,116.021z"/>
		</g>
	</g>
	<g>
		<rect x="64.192" y="33.602" fill="#282D33" width="42.485" height="4.009"/>
	</g>
	<g>
		<path fill="#282D33" d="M106.307,72.926l-3.013-2.646c2.081-2.369,3.227-5.418,3.227-8.586c0-7.131-5.73-12.932-12.773-12.932
			c-7.042,0-12.772,5.801-12.772,12.932h-4.008c0-9.341,7.527-16.94,16.78-16.94c9.254,0,16.782,7.6,16.782,16.94
			C110.529,65.836,109.029,69.824,106.307,72.926z"/>
	</g>
	<g>
		<path fill="#282D33" d="M54.001,125.336c-14.325,0-28.646-2.063-40.33-6.184c-5.053-1.826-9.034-5.768-9.081-8.979v-2.65
			c-0.015-0.977,0.404-2.877,3.381-4.297l1.727,3.617c-0.753,0.359-1.023,0.658-1.099,0.762v2.539
			c0.012,0.83,2.277,3.734,6.421,5.232c22.22,7.84,55.754,7.838,77.989-0.004c4.127-1.494,6.395-4.402,6.407-5.26v-2.51
			c-0.124-0.17-0.607-0.604-1.738-1.029l1.413-3.752c3.809,1.436,4.35,3.58,4.334,4.73v2.592c-0.05,3.24-4.033,7.18-9.067,9.002
			C82.662,123.271,68.329,125.336,54.001,125.336z"/>
	</g>
	<g>
		<path fill="#282D33" d="M8.775,88.246c-1.95-0.813-4.215-2.572-4.185-4.861v-2.596c0.048-3.234,4.03-7.176,9.066-9
			c23.39-8.25,57.316-8.25,80.685-0.006c5.051,1.826,9.034,5.766,9.083,8.975v2.654c0.018,1.174-0.568,3.404-4.692,4.832
			l-1.31-3.789c1.31-0.453,1.858-0.936,1.993-1.121v-2.545c-0.013-0.828-2.279-3.734-6.422-5.23
			c-22.217-7.838-55.752-7.836-77.987,0.004c-4.128,1.496-6.395,4.4-6.407,5.256v2.488c0.132,0.227,0.677,0.807,1.718,1.24
			L8.775,88.246z"/>
	</g>
	<g>
		<path fill="#282D33" d="M96.011,106.754H11.02C4.943,106.754,0,101.768,0,95.639c0-6.127,4.943-11.113,11.02-11.113h84.991
			c6.076,0,11.019,4.986,11.019,11.113C107.029,101.768,102.087,106.754,96.011,106.754z M11.02,88.535
			c-3.865,0-7.011,3.188-7.011,7.104c0,3.918,3.146,7.107,7.011,7.107h84.991c3.865,0,7.011-3.189,7.011-7.107
			c0-3.916-3.146-7.104-7.011-7.104H11.02z"/>
	</g>
	<g>
		<path fill="#282D33" d="M96.011,98.471c-2.813,0-4.291-0.6-5.597-1.131c-1.15-0.467-2.06-0.836-4.09-0.836
			c-2.027,0-2.936,0.369-4.086,0.836c-1.305,0.531-2.784,1.131-5.599,1.131c-2.813,0-4.291-0.6-5.596-1.131
			c-1.148-0.467-2.056-0.836-4.083-0.836s-2.936,0.369-4.085,0.836c-1.305,0.531-2.784,1.131-5.597,1.131
			c-2.812,0-4.289-0.6-5.594-1.131c-1.149-0.467-2.057-0.836-4.084-0.836s-2.935,0.369-4.082,0.836
			c-1.305,0.531-2.782,1.131-5.593,1.131s-4.289-0.6-5.593-1.131c-1.149-0.467-2.057-0.836-4.084-0.836
			c-2.026,0-2.934,0.369-4.083,0.836c-1.305,0.531-2.782,1.131-5.595,1.131c-2.811,0-4.289-0.6-5.593-1.131
			c-1.149-0.467-2.057-0.836-4.085-0.836v-4.01c2.812,0,4.291,0.602,5.595,1.133c1.148,0.467,2.056,0.836,4.083,0.836
			c2.028,0,2.936-0.369,4.085-0.836c1.304-0.531,2.782-1.133,5.593-1.133c2.812,0,4.29,0.602,5.594,1.133
			c1.148,0.467,2.056,0.836,4.083,0.836c2.026,0,2.934-0.369,4.082-0.836c1.304-0.531,2.781-1.133,5.593-1.133
			s4.289,0.602,5.594,1.133c1.149,0.467,2.057,0.836,4.084,0.836c2.029,0,2.938-0.369,4.087-0.836
			c1.305-0.531,2.783-1.133,5.595-1.133c2.811,0,4.29,0.602,5.593,1.133c1.15,0.467,2.058,0.836,4.086,0.836
			c2.031,0,2.939-0.369,4.09-0.836c1.305-0.531,2.783-1.133,5.595-1.133c2.813,0,4.293,0.602,5.599,1.133
			c1.149,0.467,2.058,0.836,4.088,0.836V98.471z"/>
	</g>
</g>
</svg>
