<svg id="Layer_1" data-name="Layer 1" xmlns="http://www.w3.org/2000/svg" viewBox="0 0 48 48">
    <defs>
        <style>.cls-1{fill:none;stroke:#000000;stroke-linecap:round;stroke-linejoin:round;stroke-width:2px;}</style>
    </defs>
    <title>fruits</title>
    <g id="fruits" data-name="fruits">
        <line class="cls-1" x1="44" y1="24" x2="44" y2="44"/>
        <polyline class="cls-1" points="4 25 13.52 25 17.25 25 24 25 30.08 25 34.48 25 44 25"/>
        <line class="cls-1" x1="44" y1="43" x2="4" y2="43"/>
        <line class="cls-1" x1="44" y1="34" x2="4" y2="34"/>
        <path class="cls-1" d="M21.31,25A20.09,20.09,0,0,0,24,18v-.5a5.64,5.64,0,0,0-4.9-5.4,2.4,2.4,0,0,1-1.85.83,7.16,7.16,0,0,1-2.13-.26,6.27,6.27,0,0,0-.62.36,6.18,6.18,0,0,0-.88-.48A6.47,6.47,0,0,0,11,12a5.76,5.76,0,0,0-6,5.5V18a20.09,20.09,0,0,0,2.69,7"/>
        <line class="cls-1" x1="13.99" y1="11.97" x2="12.5" y2="9"/>
        <path class="cls-1" d="M19.1,12.1c-.58.73-1.74,1.14-4,.58l-.62-.17s0-3.5,5-3.5A4,4,0,0,1,19.1,12.1Z"/>
        <line class="cls-1" x1="4" y1="24" x2="4" y2="44"/>
        <polyline class="cls-1" points="34.48 25 29.04 25 21.31 25 20.74 25 20.09 25 13.52 25"/>
        <path class="cls-1" d="M13.61,12.55h0c.11-.2.24-.39.37-.58a12.18,12.18,0,0,1,3.26-3.22A12,12,0,0,1,24,6.7,12.15,12.15,0,0,1,35.69,22.16"/>
        <path class="cls-1" d="M24,6.7S24.68,4,26,4"/>
        <polyline class="cls-1" points="23.45 25 24.55 22.71 23.45 20.43 24.55 18.15 23.45 15.86 24.55 13.57 23.45 11.28 24.55 8.99 23.45 6.7"/>
        <polyline class="cls-1" points="29.59 25 30.57 22.97 29.59 20.94 30.57 18.9 29.59 16.87 30.57 14.83 29.59 12.8 30.57 10.76 29.59 8.72 17.27 8.72 17.23 8.72 17.27 8.72 17.23 8.72 17.27 8.73 17.23 8.73 17.27 8.74 17.23 8.74 17.27 8.75 17.23 8.82 17.27 8.88 17.23 8.95 17.27 9.02 17.23 9.09 17.27 9.15 17.23 9.23 17.27 9.3"/>
        <path class="cls-1" d="M20.09,25a.54.54,0,0,1,.38-.05l.27.05A26.73,26.73,0,0,0,29,25c.51-.06,1-.14,1.6-.24a10.18,10.18,0,0,0,5-2.6c3.92-3.5,5.88-9.16,5.88-9.16l2.43.62L42.79,16.1s.9,4.91-1.33,8.9"/>
        <rect class="cls-1" x="-355" y="-627" width="690" height="690"/>
    </g>
</svg>
