<svg width="70" height="70" viewBox="0 0 70 70" fill="none" xmlns="http://www.w3.org/2000/svg">
<g clip-path="url(#clip0)">
<path d="M44.5 33L48 27.5L53 25C53.6667 24.8333 55.1 24.6 55.5 25C55.9 25.4 61.6667 33.1667 64.5 37L67 41.5C66.5 42.5 65.4 44.6 65 45C64.6 45.4 60.8333 47.1667 59 48C58 48.1667 55.9 48.5 55.5 48.5C55.1 48.5 50.3333 42.1667 48 39L45.375 34.5L44.5 33Z" fill="#FDC040"/>
<path d="M55.5 48.5C55.1 48.5 50.3333 42.1667 48 39L45.375 34.5H43.5H38.5C38 34.5 35.5 35.5 34.5 36L31.5 37.5C30.5 38 29.5 39 29 39.5C28.5 40 27.5 41.5 27.5 42C27.5 42.5 27.5 43.5 28 44C28.5 44.5 29.5 45 30 45H33C33.8 45 36 44 37 43.5C37.3333 43.6667 38.1 44.1 38.5 44.5C38.9 44.9 42.3333 47.3333 44 48.5L48 52.5C48.6667 52.8333 50.1 53.4 50.5 53C50.9 52.6 52.3333 51.5 53 51L54.5 50L55.5 48.5Z" fill="#FDC040"/>
<path d="M15.5 54C15.5 54.8 16.8333 56.3333 17.5 57L21 60L23 61.5L25 63.5C25.6667 63.8333 27 64.6 27 65C27 65.4 29 65.8333 30 66C30.5 65.6667 31.6 64.9 32 64.5C32.5 64 32.5 64 32.5 63C32.5 62 32.5 61 32 60C31.5 59 31.5 57 31 56.5C30.5 56 28.5 55 28.5 54.5C28.5 54 27 52 26.5 51.5C26 51 25 49 24.5 48.5C24 48 22.5 47 21.5 47.5C20.5 48 17.5 50.5 17 51C16.6 51.4 15.8333 53.1667 15.5 54Z" fill="#FDC040"/>
<path d="M25 5C28 9.16667 36.6 17.3 47 16.5L45 22.5L42 25L32.5 28L25 25.5L20.5 17.5L21 11L23.5 6.5L25 5Z" fill="#FDC040"/>
<path d="M33.6653 17.9748C33.1374 17.9748 32.4901 17.8976 32.0469 17.4037C31.8928 17.2302 31.7578 17.0681 31.6269 16.933C30.5711 15.8219 28.7524 17.3652 29.8544 18.8079L30.1203 19.1512C30.2936 19.3675 30.6058 19.6181 31.0527 19.9037C31.4882 20.1812 31.9736 20.3819 32.5131 20.5015V22.4075C32.5131 23.0633 33.0485 23.6034 33.7038 23.6034C34.3627 23.6034 34.9213 23.0633 34.9213 22.4075V20.49C35.7845 20.2896 36.5243 19.8689 37.1292 19.2325C37.7378 18.5957 38.0423 17.751 38.0423 16.6977C38.0423 15.9802 37.9038 15.3823 37.6262 14.8999C37.3488 14.4215 37.0097 14.086 36.6051 13.8968C36.1967 13.7077 35.7536 13.5418 35.2642 13.3992C34.7788 13.2565 34.3357 13.1561 33.9272 13.0945C33.5227 13.0364 33.1836 12.9129 32.9061 12.7318C32.6286 12.5464 32.49 12.3073 32.49 12.0102C32.49 10.5906 34.5707 10.7641 35.4876 11.5357C36.8401 12.6738 38.3543 10.5906 36.7861 9.41394L36.605 9.25178C36.4816 9.15556 36.2659 9.03583 35.9538 8.88529C35.6455 8.73502 35.2986 8.62299 34.9212 8.54191V7.38853V6.88705C34.9212 6.2311 34.3855 5.6911 33.7267 5.6911C33.0716 5.6911 32.5323 6.23097 32.5323 6.88705V8.52272C31.6536 8.69637 30.9254 9.13245 30.4208 9.77651C29.9122 10.4325 29.654 11.1579 29.654 11.9677C29.654 12.7819 29.843 13.4493 30.2204 13.9779C30.598 14.5061 31.0566 14.8766 31.5999 15.0927C32.1393 15.3088 32.6786 15.4825 33.2181 15.6096C33.7613 15.741 34.22 15.8835 34.5974 16.0495C34.9751 16.2115 35.1639 16.4392 35.1639 16.7362C35.164 17.5618 34.6632 17.9748 33.6653 17.9748Z" fill="#3BB77E"/>
<path d="M67.9499 39.0335L56.8461 24.8108C56.0982 23.8503 54.9642 23.2993 53.7352 23.2993C52.8677 23.2993 52.0465 23.5747 51.3573 24.0976L44.0905 29.637C43.2587 30.2709 42.7273 31.1909 42.5941 32.2274C42.5742 32.3819 42.5648 32.5359 42.5632 32.6892C39.7929 32.4793 36.9315 32.6903 34.1527 34.4965L34.0281 34.5774L26.9986 33.5024C27.013 33.259 27.0052 33.0127 26.9731 32.7655C26.8391 31.7315 26.3086 30.8136 25.4784 30.1807L18.2098 24.6463C16.5068 23.344 14.0445 23.6604 12.7203 25.3534L10.0733 28.7446C9.61004 29.3378 9.71571 30.1942 10.309 30.6572C10.9023 31.1204 11.7587 31.0147 12.2218 30.4215L14.868 27.0315C15.2686 26.5193 16.0407 26.4185 16.5564 26.813L23.8267 32.3486C24.0729 32.5363 24.2304 32.8088 24.2702 33.1161C24.31 33.4238 24.2269 33.7284 24.0372 33.972L12.9313 48.197C12.5334 48.708 11.7603 48.8078 11.2454 48.4174L3.97828 42.8774C3.73071 42.6888 3.57247 42.4153 3.53287 42.1076C3.49355 41.8013 3.57666 41.4988 3.76787 41.2545L5.65598 38.8357C6.11909 38.2424 6.01355 37.3861 5.42017 36.9231C4.82693 36.4597 3.97058 36.5655 3.50733 37.1588L1.62031 39.5762C0.977468 40.398 0.696657 41.4203 0.82963 42.4549C0.962738 43.4912 1.49436 44.4112 2.32598 45.045L9.59544 50.5869C10.3029 51.1235 11.139 51.3831 11.9696 51.383C12.45 51.383 12.928 51.2947 13.3787 51.1245L14.3195 52.413C13.8081 53.3458 13.7284 54.4664 14.1394 55.5478C14.7268 57.0941 16.1129 58.1424 17.6125 58.1923C17.659 58.4126 17.7234 58.6327 17.8114 58.8507C18.4159 60.3484 19.7961 61.3678 21.2792 61.4349C21.286 61.4738 21.2911 61.5128 21.2991 61.5518C21.5813 62.9231 22.6333 64.0942 23.9791 64.5354C24.3219 64.6478 24.6676 64.7055 25.0099 64.7157C25.141 65.2678 25.415 65.8011 25.8363 66.2692C26.4929 66.9991 27.4515 67.4661 28.5031 67.4659C29.2668 67.4659 30.0796 67.2181 30.8609 66.647L32.404 68.0895C33.19 68.823 34.1795 69.1892 35.1595 69.1892C36.1536 69.1891 37.1376 68.8123 37.8891 68.0601C38.3372 67.6116 38.6844 67.078 38.909 66.5162C39.2919 66.6326 39.666 66.6877 40.0249 66.6877C41.0356 66.6876 41.9275 66.2608 42.5665 65.6026C43.0894 65.0641 43.4637 64.3472 43.6292 63.583C43.6845 63.5858 43.7398 63.5881 43.7953 63.5886C43.809 63.5888 43.8223 63.5888 43.836 63.5888C44.9109 63.5888 45.9422 63.1724 46.6706 62.443C47.1809 61.9322 47.5319 61.3034 47.6995 60.6169C47.9595 60.6676 48.2206 60.6941 48.4811 60.6941C48.8091 60.6941 49.1363 60.6534 49.4586 60.5708C50.7727 60.2341 51.7875 59.207 52.1068 57.8904C52.4015 56.6755 52.0979 55.3957 51.2713 54.2324C53.4115 52.5105 54.2772 51.6623 55.2549 50.0763C55.9227 50.5676 56.7357 50.8382 57.5949 50.8382C58.4649 50.8382 59.2877 50.5608 59.9718 50.0377L67.2433 44.5012C68.0728 43.8689 68.6034 42.9512 68.7375 41.917C68.8715 40.8819 68.5923 39.8582 67.9499 39.0335ZM18.3254 55.1873C18.1167 55.3759 17.9142 55.4716 17.7236 55.4716C17.3322 55.4716 16.8771 55.0801 16.6871 54.58C16.5146 54.1258 16.595 53.7463 16.9269 53.4516L16.9313 53.4478L16.9354 53.4442L21.5265 49.3634C21.9106 49.0227 22.2971 48.8426 22.6445 48.8426C23.1529 48.8426 23.533 49.2286 23.671 49.5876C23.8186 49.9709 23.7298 50.313 23.4087 50.6034L22.6084 51.3251L22.6063 51.327C22.6023 51.3304 22.5986 51.3339 22.5946 51.3374C22.566 51.3634 22.5364 51.3901 22.5072 51.4165L18.3254 55.1873ZM22.0364 58.4445C21.8295 58.6273 21.6323 58.7159 21.434 58.7159C21.0203 58.7159 20.5394 58.3272 20.339 57.8305C20.1181 57.2835 20.3802 57.0309 20.463 56.9509C20.5163 56.8999 20.5802 56.8386 20.6468 56.7673L20.648 56.7662L20.6621 56.7538C20.9242 56.5196 23.2327 54.4338 24.3357 53.4372L24.4179 53.3631C24.7917 53.035 25.1703 52.8616 25.5134 52.8616C26.0545 52.8616 26.4573 53.2757 26.6026 53.6603C26.7471 54.0427 26.6604 54.3774 26.3461 54.6542L26.0634 54.9028C26.0613 54.9047 26.0592 54.9062 26.0572 54.9081L26.0552 54.9101L22.0364 58.4445ZM26.0983 61.3859C26.0795 61.4028 26.0618 61.4205 26.0436 61.4377L25.7238 61.7262C25.4396 61.983 25.155 62.053 24.828 61.9457C24.4146 61.8101 24.0536 61.4135 23.969 61.0027C23.8954 60.6455 24.0384 60.3145 24.4014 59.9945L24.8561 59.5972C24.8676 59.5872 24.8775 59.5762 24.8886 59.5659L27.8672 56.9464C28.581 56.3154 29.2879 56.2522 29.7584 56.7782C29.8246 56.8523 30.3857 57.5193 29.7007 58.1381L27.8714 59.7888C27.8518 59.8061 27.8319 59.8216 27.8125 59.8393C27.8056 59.8457 27.7999 59.853 27.7931 59.8592L26.1192 61.3696C26.1125 61.3754 26.1049 61.3799 26.0983 61.3859ZM27.8626 64.4462C27.719 64.2868 27.4419 63.8734 27.8964 63.4369L29.7213 61.7903C29.8594 61.6722 29.9925 61.5785 30.1171 61.5142C30.1227 61.5112 30.1286 61.5082 30.1342 61.5053C30.8698 61.1124 31.2684 61.5704 31.3733 61.72C31.508 61.9124 31.6723 62.2904 31.2592 62.6615L30.009 63.7853C30.0042 63.7895 29.9996 63.7938 29.9949 63.798L29.4529 64.2851C28.5622 65.0846 28.0104 64.6108 27.8626 64.4462ZM49.458 57.248C49.3742 57.5932 49.1279 57.842 48.7821 57.9307C48.2088 58.0774 47.4832 57.7591 46.8188 57.0774C46.769 57.0223 46.7179 56.968 46.6645 56.9154L41.5205 51.8305C40.985 51.3016 40.1222 51.3065 39.5932 51.8418C39.0641 52.377 39.069 53.2399 39.6042 53.7689L44.74 58.8455C44.7486 58.8546 44.7573 58.8635 44.7657 58.8726C44.9709 59.0836 45.085 59.3655 45.0863 59.6707C45.0875 59.993 44.9653 60.2935 44.7421 60.517C44.5219 60.7376 44.1926 60.8634 43.8367 60.8634C43.8317 60.8634 43.8268 60.8634 43.8218 60.8632C43.5067 60.8603 43.2191 60.7547 43.0167 60.5705C42.9314 60.4603 42.8386 60.3534 42.7365 60.2509L38.9759 56.4857C38.444 55.9534 37.5811 55.9528 37.0486 56.4845C36.5161 57.0163 36.5156 57.8791 37.0473 58.4116L40.6137 61.9824C40.6567 62.0453 40.7044 62.1059 40.7592 62.1626L40.911 62.3191C41.1065 62.6914 40.9853 63.3186 40.611 63.7043C40.0334 64.2991 39.2205 63.7747 38.6414 63.2308L37.0309 61.7147C36.4829 61.1988 35.6203 61.2249 35.1045 61.7728C34.5886 62.3209 34.6146 63.1834 35.1626 63.6993L36.3929 64.8573C36.3959 64.8601 36.3983 64.8632 36.4013 64.8659C36.4294 64.8922 36.4717 64.9319 36.4738 65.0693C36.4791 65.3887 36.2682 65.8266 35.961 66.1341C35.5126 66.5828 34.7671 66.5668 34.2645 66.0977L32.9159 64.8372L33.0807 64.6889C34.418 63.4881 34.6338 61.6245 33.6056 60.1566C33.271 59.6789 32.8519 59.3078 32.3818 59.0503C33.0445 57.7434 32.8592 56.1566 31.7896 54.9611C31.1863 54.2865 30.334 53.8258 29.3826 53.7238C29.3554 53.3819 29.2806 53.0373 29.1523 52.6976C28.6894 51.4719 27.6603 50.5697 26.4492 50.2573C26.4996 49.7143 26.4246 49.1538 26.2149 48.6085C25.6413 47.1184 24.2067 46.117 22.6446 46.117C21.6203 46.117 20.6084 46.5345 19.7171 47.3251L16.2377 50.4178L15.4729 49.3704L25.8467 36.0834L30.5896 36.8088L29.8721 37.2743C26.0288 39.7678 25.7475 42.6677 26.7659 44.5503C27.5809 46.0572 29.2075 46.9185 30.9341 46.9185C31.6449 46.9184 32.373 46.7724 33.068 46.4653C33.0864 46.457 33.1046 46.4486 33.1225 46.4397L36.7155 44.6582L38.7896 46.5468C38.7917 46.5486 38.7938 46.55 38.7957 46.5518C38.7977 46.5536 38.7994 46.5555 38.8014 46.5574L48.3882 55.0834C49.2096 55.8138 49.6096 56.623 49.458 57.248ZM49.3434 52.2857L40.6186 44.5262L37.8618 42.0162C37.4467 41.638 36.8419 41.5532 36.339 41.8028L31.9411 43.9835C30.7463 44.4974 29.571 44.0084 29.1629 43.2539C28.6021 42.2172 29.4421 40.802 31.3553 39.5609L35.6371 36.7824C37.9587 35.2732 40.3941 35.1568 43.7256 35.5434L53.3722 47.9038C52.3542 49.7319 51.8136 50.3122 49.3434 52.2857ZM66.0345 41.5666C65.9948 41.8735 65.8372 42.1459 65.5915 42.3332L58.3183 47.8709C58.0571 48.0708 57.7809 48.1127 57.5952 48.1127C57.2129 48.1126 56.8619 47.9443 56.6333 47.6519L45.5313 33.4268C45.341 33.1834 45.2579 32.8809 45.2973 32.5747C45.3369 32.2669 45.495 31.9932 45.7427 31.8045L53.0073 26.2667C53.2709 26.0669 53.5484 26.0249 53.735 26.0249C54.1177 26.0249 54.4678 26.1926 54.6967 26.4865L65.8005 40.7093C65.9913 40.9545 66.0745 41.2588 66.0345 41.5666Z" fill="#3BB77E"/>
<path d="M26.7877 27.6842C28.9273 28.8387 31.3442 29.4489 33.7772 29.4489C41.8882 29.4489 48.4872 22.8426 48.4872 14.7224C48.4872 9.05514 45.1786 3.82892 40.0593 1.40824C38.0872 0.473784 35.9736 0 33.7772 0C25.668 0 19.0708 6.60446 19.0708 14.7224C19.0708 20.1368 22.0269 25.103 26.7877 27.6842ZM33.7772 2.72541C35.5667 2.72541 37.2877 3.11095 38.8932 3.87149C43.0655 5.84433 45.7616 10.1037 45.7616 14.7224C45.7616 21.3399 40.3854 26.7235 33.7773 26.7235C31.7946 26.7235 29.8253 26.2262 28.0845 25.287C24.2058 23.1839 21.7963 19.1358 21.7963 14.7224C21.7963 8.1073 27.1708 2.72541 33.7772 2.72541Z" fill="#3BB77E"/>
<path d="M7.01449 34.8533C7.26543 35.0536 7.56557 35.1509 7.86367 35.1509C8.26395 35.1509 8.66057 34.9753 8.92962 34.638L8.94503 34.6187C9.41449 34.0305 9.31813 33.173 8.72989 32.7036C8.14165 32.2344 7.28408 32.3303 6.81476 32.9188L6.79935 32.9382C6.32989 33.5264 6.42624 34.3838 7.01449 34.8533Z" fill="#3BB77E"/>
</g>
<defs>
<clipPath id="clip0">
<rect width="69.1892" height="69.1892" fill="white" transform="translate(0.189209)"/>
</clipPath>
</defs>
</svg>
