<svg width="512" height="512" viewBox="0 0 512 512" style="color:currentColor" xmlns="http://www.w3.org/2000/svg" class="h-full w-full"><rect width="512" height="512" x="0" y="0" rx="30" fill="transparent" stroke="transparent" stroke-width="0" stroke-opacity="100%" paint-order="stroke"></rect><svg width="256px" height="256px" viewBox="0 0 24 24" fill="currentColor" x="128" y="128" role="img" style="display:inline-block;vertical-align:middle" xmlns="http://www.w3.org/2000/svg"><g fill="currentColor"><path fill="currentColor" d="M20.317 4.492c-1.53-.69-3.17-1.2-4.885-1.49a.075.075 0 0 0-.079.036c-.21.369-.444.85-.608 1.23a18.566 18.566 0 0 0-5.487 0a12.36 12.36 0 0 0-.617-1.23A.077.077 0 0 0 8.562 3c-1.714.29-3.354.8-4.885 1.491a.07.07 0 0 0-.032.027C.533 9.093-.32 13.555.099 17.961a.08.08 0 0 0 .031.055a20.03 20.03 0 0 0 5.993 2.98a.078.078 0 0 0 .084-.026a13.83 13.83 0 0 0 1.226-1.963a.074.074 0 0 0-.041-.104a13.201 13.201 0 0 1-1.872-.878a.075.075 0 0 1-.008-.125c.126-.093.252-.19.372-.287a.075.075 0 0 1 .078-.01c3.927 1.764 8.18 1.764 12.061 0a.075.075 0 0 1 .079.009c.12.098.245.195.372.288a.075.075 0 0 1-.006.125c-.598.344-1.22.635-1.873.877a.075.075 0 0 0-.041.105c.36.687.772 1.341 1.225 1.962a.077.077 0 0 0 .084.028a19.963 19.963 0 0 0 6.002-2.981a.076.076 0 0 0 .032-.054c.5-5.094-.838-9.52-3.549-13.442a.06.06 0 0 0-.031-.028ZM8.02 15.278c-1.182 0-2.157-1.069-2.157-2.38c0-1.312.956-2.38 2.157-2.38c1.21 0 2.176 1.077 2.157 2.38c0 1.312-.956 2.38-2.157 2.38Zm7.975 0c-1.183 0-2.157-1.069-2.157-2.38c0-1.312.955-2.38 2.157-2.38c1.21 0 2.176 1.077 2.157 2.38c0 1.312-.946 2.38-2.157 2.38Z"/></g></svg></svg>