<svg width="26" height="26" viewBox="0 0 26 26" fill="none" xmlns="http://www.w3.org/2000/svg">
<g clip-path="url(#clip0)">
<path d="M20.298 8.38686L21.7149 7.56033C18.6493 2.2939 12.0415 0.282014 6.56113 2.94644V0.930145H4.9212V5.84994H9.84099V4.21001H7.74598C12.3848 2.24224 17.7631 4.03197 20.298 8.38686Z" fill="#253D4E"/>
<path d="M5.33116 21.1635C1.52924 18.0758 0.528575 12.686 2.96884 8.43938L1.54702 7.61942C-1.2363 12.4662 -0.183154 18.6069 4.05611 22.2492H2.0513V23.8892H6.97109V18.9694H5.33116V21.1635V21.1635Z" fill="#253D4E"/>
<path d="M22.5209 11.2355L19.0426 14.7146L20.202 15.874L21.5959 14.4801C21.0492 19.5603 16.7683 23.4158 11.6588 23.43V25.0699C17.7465 25.0539 22.7967 20.3557 23.2514 14.2849L24.8405 15.874L26 14.7146L22.5209 11.2355Z" fill="#253D4E"/>
</g>
<defs>
<clipPath id="clip0">
<rect width="26" height="26" fill="white"/>
</clipPath>
</defs>
</svg>
