<svg width="25" height="25" viewBox="0 0 25 25" fill="none" xmlns="http://www.w3.org/2000/svg">
<g clip-path="url(#clip0)">
<path d="M18.2753 1.28351C17.1493 1.30102 16.0478 1.61536 15.0821 2.19478C14.1164 2.7742 13.3207 3.59818 12.7753 4.58351C12.23 3.59818 11.4343 2.7742 10.4686 2.19478C9.50289 1.61536 8.4014 1.30102 7.27535 1.28351C5.48029 1.3615 3.78905 2.14676 2.57113 3.46774C1.35321 4.78872 0.707598 6.53803 0.775349 8.33351C0.775349 15.1085 11.7313 22.9335 12.1973 23.2655L12.7753 23.6745L13.3533 23.2655C13.8193 22.9355 24.7753 15.1085 24.7753 8.33351C24.8431 6.53803 24.1975 4.78872 22.9796 3.46774C21.7616 2.14676 20.0704 1.3615 18.2753 1.28351ZM12.7753 21.2125C9.52235 18.7825 2.77535 12.8125 2.77535 8.33351C2.70699 7.06822 3.14172 5.82724 3.98471 4.88121C4.82771 3.93518 6.01058 3.36086 7.27535 3.28351C8.54012 3.36086 9.72299 3.93518 10.566 4.88121C11.409 5.82724 11.8437 7.06822 11.7753 8.33351H13.7753C13.707 7.06822 14.1417 5.82724 14.9847 4.88121C15.8277 3.93518 17.0106 3.36086 18.2753 3.28351C19.5401 3.36086 20.723 3.93518 21.566 4.88121C22.409 5.82724 22.8437 7.06822 22.7753 8.33351C22.7753 12.8145 16.0283 18.7825 12.7753 21.2125Z" fill="#253D4E"/>
</g>
<defs>
<clipPath id="clip0">
<rect width="24" height="24" fill="white" transform="translate(0.775391 0.366516)"/>
</clipPath>
</defs>
</svg>
