<svg width="70" height="70" viewBox="0 0 70 70" fill="none" xmlns="http://www.w3.org/2000/svg">
<g clip-path="url(#clip0)">
<path d="M14.5 16.5V35C18 33.8333 26.6 33.6 33 42C34.5 45.1667 36.9 52.5 34.5 56.5L41.5 60.5V30.5L14.5 16.5Z" fill="#FDC040"/>
<path d="M69.1117 14.9351L42.2175 0.167204C41.8134 -0.0545955 41.3235 -0.0545955 40.9194 0.167204L30.7825 5.73328C30.5686 5.78965 30.3689 5.89713 30.2035 6.05149L14.0257 14.9351C13.5943 15.1716 13.3261 15.6247 13.3261 16.1173V33.9783C10.5971 34.8318 8.09615 36.3369 6.01671 38.4169C0.596573 43.8365 -0.78533 52.1026 2.57802 58.9858C2.90466 59.6549 3.71231 59.9326 4.3814 59.6054C5.05101 59.2782 5.32813 58.4706 5.00149 57.8015C2.14391 51.953 3.31823 44.9297 7.92388 40.3241C10.8041 37.4438 14.6332 35.8575 18.7062 35.8575C22.7792 35.8575 26.6083 37.4438 29.4885 40.3241C32.3682 43.2038 33.9546 47.0329 33.9546 51.1059C33.9546 55.1789 32.3682 59.008 29.488 61.8882C24.8824 66.4938 17.859 67.6682 12.0106 64.8106C11.3415 64.4834 10.5338 64.7611 10.2072 65.4301C9.88004 66.0998 10.1572 66.9074 10.8268 67.234C13.334 68.4595 16.0241 69.0548 18.6946 69.0548C23.3535 69.0543 27.9502 67.2409 31.3957 63.7954C32.9757 62.2154 34.2243 60.3925 35.1078 58.411L40.9194 61.6021C41.1217 61.7133 41.3451 61.7686 41.5685 61.7686C41.7918 61.7686 42.0158 61.7133 42.2175 61.6021L69.1117 46.8348C69.5432 46.5977 69.8113 46.1446 69.8113 45.6525V36.2795C69.8113 35.5346 69.2076 34.9308 68.4626 34.9308C67.7177 34.9308 67.1139 35.5346 67.1139 36.2795V44.8544L42.9214 58.1387V31.6807L50.9057 27.2963V34.2464C50.9057 34.7238 51.1575 35.1652 51.5679 35.4076C51.7797 35.5325 52.0168 35.5951 52.2544 35.5951C52.4778 35.5951 52.7017 35.5398 52.9045 35.4281L58.6676 32.256C59.0986 32.0189 59.3657 31.5664 59.3657 31.0749V22.6507L67.1139 18.3964V25.4903C67.1139 26.2353 67.7177 26.8391 68.4626 26.8391C69.2076 26.8391 69.8113 26.2353 69.8113 25.4903V16.1173C69.8113 15.6252 69.5432 15.1716 69.1117 14.9351ZM41.5685 2.88781L65.6604 16.1173L58.0607 20.2904L33.9688 7.06092L41.5685 2.88781ZM41.5685 29.3463L17.4766 16.1173L25.3549 11.7909L49.4474 25.0199L41.5685 29.3463ZM52.2491 23.4815L28.1572 10.2525L31.1665 8.59982L55.2589 21.8288L52.2491 23.4815ZM31.3957 38.4169C28.006 35.0272 23.4994 33.1606 18.7062 33.1606C17.7995 33.1606 16.9039 33.2275 16.0235 33.3587V18.3964L40.2245 31.6855V58.1434L36.024 55.8369C36.4376 54.3143 36.6515 52.7264 36.6515 51.1059C36.6515 46.3127 34.7849 41.8061 31.3957 38.4169ZM56.6688 30.2777L53.6031 31.9652V25.8154L56.6688 24.1321V30.2777Z" fill="#3BB77E"/>
<path d="M68.4622 29.5289C68.1077 29.5289 67.7594 29.6733 67.5087 29.9241C67.2579 30.1748 67.1135 30.5226 67.1135 30.8776C67.1135 31.2322 67.2579 31.5799 67.5087 31.8307C67.7594 32.082 68.1077 32.2258 68.4622 32.2258C68.8168 32.2258 69.165 32.082 69.4158 31.8307C69.6666 31.5799 69.811 31.2322 69.811 30.8776C69.811 30.5226 69.6666 30.1748 69.4158 29.9241C69.165 29.6733 68.8168 29.5289 68.4622 29.5289Z" fill="#3BB77E"/>
<path d="M14.1707 52.4539C14.5158 52.4539 14.8614 52.3222 15.1243 52.0593C15.6511 51.5324 15.6511 50.6784 15.1243 50.1516L14.1902 49.217H22.1613C24.0948 49.217 25.6679 50.7901 25.6679 52.7236C25.6679 54.6571 24.0948 56.2303 22.1613 56.2303H17.4381C16.6932 56.2303 16.0894 56.834 16.0894 57.579C16.0894 58.3234 16.6932 58.9272 17.4381 58.9272H22.1613C25.5821 58.9272 28.3654 56.1444 28.3654 52.7236C28.3654 49.3028 25.5821 46.5201 22.1613 46.5201H14.1902L15.1243 45.5854C15.6511 45.0586 15.6511 44.2046 15.1243 43.6778C14.5979 43.1514 13.7439 43.1514 13.2171 43.6778L9.98018 46.9147C9.45387 47.4415 9.45387 48.2955 9.98018 48.8224L13.2171 52.0587C13.4805 52.3222 13.8256 52.4539 14.1707 52.4539Z" fill="#3BB77E"/>
<path d="M6.97089 64.1919C6.58735 64.1919 6.20644 64.0286 5.94039 63.7119L5.93776 63.7088C5.45833 63.1387 5.53209 62.2884 6.10213 61.809C6.67217 61.329 7.52302 61.4028 8.00245 61.9728C8.48134 62.5434 8.40917 63.3953 7.83912 63.8747C7.58571 64.0876 7.27751 64.1919 6.97089 64.1919Z" fill="#3BB77E"/>
</g>
<defs>
<clipPath id="clip0">
<rect width="69.0541" height="69.0541" fill="white" transform="translate(0.756836)"/>
</clipPath>
</defs>
</svg>
