<svg xmlns="http://www.w3.org/2000/svg" viewBox="0 0 48 48">
<title>Breakfast with sandwich and milk</title>
<g id="milk" 
data-name="milk">
<path d="M48,13c0-.33.21.21-4-8.2V1a1,1,0,0,0-1-1H27a1,1,0,0,0-1,1V4.76c-4.15,8.31-4,7.9-4,8.24V26.13l-9.47-6a1,1,0,0,0-1.27.17l-11,12C-.11,32.73,0,32,0,47a1,1,0,0,0,1,1H47a1,1,0,0,0,1-1C48,2.09,48.09,15.53,48,13Zm-2.61-1H40.62L43,7.24ZM28,2H42V4H28Zm-.38,4H41.38l-3,6H24.62ZM24,14H38V46H32V33c0-.78-.14-.64-8-5.6Zm6,24.56c-1.92.23-2,.94-4,.94s-2.35-1-5-1-2.84,1-5,1-2.29-1-5-1-2.84,1-5,1c-2,0-2.09-.71-4-.94V38H30ZM30,36H2V34H30ZM2,40.59c1.31.23,1.78.91,4,.91,2.65,0,2.84-1,5-1s2.29,1,5,1,2.84-1,5-1,2.35,1,5,1c2.2,0,2.71-.68,4-.91V42H2Zm10.17-18.3L27.54,32H3.27ZM2,44H30v2H2Zm44,2H40V14h6Z"/>
<path d="M8.62,29.08A1,1,0,1,0,10,30,1,1,0,0,0,8.62,29.08Z"/><path d="M12.71,25.29A1,1,0,1,0,12,27,1,1,0,0,0,12.71,25.29Z"/>
<path d="M20.71,29.29A1,1,0,1,0,20,31,1,1,0,0,0,20.71,29.29Z"/><path d="M14.29,28.29a1,1,0,1,0,1.42,0A1,1,0,0,0,14.29,28.29Z"/>
</g>
</svg>