<?xml version="1.0" encoding="iso-8859-1"?>
<!-- Uploaded to: SVG Repo, www.svgrepo.com, Generator: SVG Repo Mixer Tools -->
<svg fill="#000000" height="800px" width="800px" version="1.1" id="Layer_1" xmlns="http://www.w3.org/2000/svg" xmlns:xlink="http://www.w3.org/1999/xlink" 
	 viewBox="0 0 512 512" xml:space="preserve">
<g>
	<g>
		<path d="M263.724,308.11c-1.596-1.74-3.85-2.731-6.211-2.731c-2.36,0-4.615,0.991-6.211,2.731
			c-5.917,6.453-35.436,39.689-35.436,60.272c0,22.964,18.683,41.647,41.647,41.647s41.647-18.682,41.647-41.647
			C299.16,347.799,269.641,314.563,263.724,308.11z M257.514,393.177c-13.673,0-24.795-11.122-24.795-24.795
			c0-8.781,12.995-27.657,24.795-41.77c11.8,14.113,24.795,32.989,24.795,41.77C282.308,382.053,271.186,393.177,257.514,393.177z"
			/>
	</g>
</g>
<g>
	<g>
		<path d="M351.102,281.57c0.042-28.114,0.063-42.225-22.788-65.078c-3.291-3.291-8.626-3.292-11.915,0
			c-3.292,3.291-3.292,8.626-0.001,11.915c17.906,17.906,17.893,26.783,17.854,53.136l-0.003,3.82l0.006,193.485
			c0,4.353-1.695,8.446-4.772,11.523s-7.17,4.774-11.523,4.774h-123.91c-8.985,0-16.296-7.31-16.296-16.296V285.366l-0.002-2.913
			c-0.024-27.287-0.029-34.62,19.394-54.043c18.048-18.048,19.673-40.563,18.756-53.542h79.765v14.262
			c0,4.667,3.784,8.451,8.451,8.451c4.668,0,8.451-3.784,8.451-8.451v-14.647c4.908-0.877,9.469-3.307,12.898-7.004
			c4.357-4.695,6.58-11.05,6.104-17.438l-2.082-27.779c-0.224-11.203-10.728-20.256-23.608-20.256h-8.654
			c-3.03-10.896-4.585-22.139-4.585-33.455c0-9.703-3.695-25.785-8.985-39.107C275.893,9.907,266.443,0,255.564,0
			c-25.09,0-37.017,57.01-37.074,71.314c0,0.019,0,0.039,0,0.058c0,10.254-1.161,20.521-3.45,30.514l-0.027,0.119h-8.62
			c-12.896,0-23.411,9.075-23.61,20.295l-1.864,27.927c-0.424,6.355,1.829,12.667,6.18,17.319c3.194,3.414,7.359,5.747,11.865,6.752
			c0.957,9.276,0.645,27.81-13.739,42.193c-24.366,24.366-24.354,37.405-24.329,65.974l0.002,196.385
			c0,18.278,14.869,33.148,33.148,33.148h123.909c8.854,0,17.179-3.448,23.439-9.709c6.261-6.261,9.71-14.586,9.709-23.441
			l-0.006-193.484L351.102,281.57z M235.342,71.429c0-0.005,0-0.009,0-0.015c0-6.384,2.782-20.598,7.434-33.337
			c6.159-16.86,11.692-21.034,12.788-21.226c1.324,0,6.725,4.459,12.427,18.814c4.88,12.287,7.796,26.369,7.796,32.885
			c0,11.285,1.348,22.507,4.007,33.455h-47.543C234.298,91.953,235.337,81.686,235.342,71.429z M197.734,151.351l1.88-28.164
			c0.012-0.188,0.019-0.374,0.019-0.562c0-1.5,2.696-3.768,6.761-3.768h13.339c0.631,0.149,1.282,0.23,1.943,0.23h69.281
			c0.665,0,1.32-0.079,1.955-0.23h12.969c4.064,0,6.76,2.268,6.76,3.768c0,0.21,0.008,0.42,0.024,0.629l2.101,28.045
			c0.131,1.754-0.454,3.429-1.65,4.717c-1.195,1.288-2.822,1.998-4.58,1.998h-2.093H206.208h-2.238c-1.748,0-3.368-0.703-4.562-1.98
			C198.211,154.758,197.617,153.095,197.734,151.351z"/>
	</g>
</g>
</svg>