<?xml version="1.0" encoding="utf-8"?><!-- Uploaded to: SVG Repo, www.svgrepo.com, Generator: SVG Repo Mixer Tools -->
<svg fill="#000000" width="800px" height="800px" viewBox="-7.96 0 120 120" xmlns="http://www.w3.org/2000/svg">
  <path id="_0605-rice-chopsticks" data-name="0605-rice-chopsticks" d="M1001.456,1196.13c-1.889-.083-3.775-.166-5.614-.149-3.032-.408-5.913-.967-7.481-2.839.253-3.432-1.117-5.244-2.064-7.48a17.75,17.75,0,0,0-2.838-1.548c-1.025-.435-1.706-1.217-2.837-1.549-.559-.9-1.9-1.023-2.322-2.063-1.154-.309-1.513-1.411-2.58-1.806-1.345-1.578-2.892-2.956-4.127-4.643-.554-.909-1.483-1.441-1.805-2.579-.923-.455-.923-1.829-1.807-2.322-.885-2.038-1.953-3.894-2.837-5.933s-1.475-4.373-2.581-6.193a73.674,73.674,0,0,1-2.837-14.444v-3.872c.261-1.63.484-3.3.774-4.9a23.1,23.1,0,0,0,1.805-2.065,15.659,15.659,0,0,1,3.612-1.547c.957-1.106,1.834-2.294,2.838-3.354a.705.705,0,0,0,.774-.517,14.949,14.949,0,0,0,2.839-1.29,15.807,15.807,0,0,1,3.353-.257c1.145.027.9-1.34,1.805-1.548.218-.814,1.331-.734,1.548-1.548a25.632,25.632,0,0,0,3.1-1.292h2.838a.691.691,0,0,0,.774-.387.694.694,0,0,1,.774-.386c.093-.682,1.314-.233,1.547-.774.58.025,1.2.013,1.818,0,1.752-.037,3.505-.073,4.374.774,1.127-.379,1.424-1.733,2.579-2.321,2.583-.771,4.364-2.343,8-2.064a4,4,0,0,1,2.838,1.289,9.486,9.486,0,0,1,3.612-2.579c1.2-.381,2.238.218,3.354,1.291a14.784,14.784,0,0,1,3.1-1.032c3.139.3,4.624,2.255,6.964,3.354a2.673,2.673,0,0,0,1.612-.383,2.707,2.707,0,0,1,1.486-.391,6.573,6.573,0,0,1,2.548-.264c.271,0,.541.007.8,0,.058.255.375.252.693.249a2.763,2.763,0,0,1,.339.01,8.814,8.814,0,0,1,3.352,5.159c2.15.258,3.862.954,4.127,3.1a8.18,8.18,0,0,1,4.129-1.031c.722.137,1.34.379,2.064.515.663.454,1.113,1.122,1.8,1.548.483.55.421,1.644,1.032,2.065,1.914-.081,3.353-.424,4.9.257,4.189,1.134,4.885,7.957,3.611,12.9a57.266,57.266,0,0,1-8,30.957c-4.223,6.967-10.086,12.893-17.284,16.252-.454,1.22.339,1.177.258,2.579-3.609,4.906-11.971,5.055-20.638,4.9a36.168,36.168,0,0,1-4.976.3C1004.9,1196.281,1003.178,1196.205,1001.456,1196.13Zm18.378-7.372c.053.808-.175,1.895.258,2.322a12.385,12.385,0,0,0,4.9-.516c1.426-.381,3.6-.009,3.612-1.806-.139-.377-.715-.318-1.29-.258s-1.151.12-1.29-.257a1.58,1.58,0,0,1-1.805-1.549c.341-1.721,2.519-1.607,4.385-1.8.634-.312.69-1.2,1.548-1.29a1.347,1.347,0,0,1,.6.15,1.286,1.286,0,0,0,.947.106c2.754-2.4,5.938-4.379,8.256-7.222a45.092,45.092,0,0,0,6.448-9.03q5.551-9.928,6.966-23.992c-5.612.494-9.4,2.812-15.479,2.839a2.165,2.165,0,0,1-1.1-.141,2.145,2.145,0,0,0-1.226-.118c-5.953.409-11.866.86-17.8,1.29H999.454c-12.693-.808-23.68-3.321-34.31-6.191-.055-.312-.287-.157-.517,0,.308,2.187.257,4.73,1.032,6.449a78.605,78.605,0,0,1,8.513.774c1.528.02,2.658.438,4.128.517.865.767,2.79.477,2.837,2.064-.323,1.57-2.678,1.1-4.126,1.546-3.718-.409-7.524-.731-10.577-1.8a3.759,3.759,0,0,0,.515,2.322c-.105.621.471.561.259,1.289.278-.046.276.189.274.423,0,.286-.005.572.5.351.12.364.654.312,1.19.261a2.838,2.838,0,0,1,.875,0h2.322c2.1.479,4.869.288,6.966.774,1.463-.176,2.115.464,3.353.515.164.524,1.2.17,1.289.775-.068.755.583.792.517,1.547-4.627,1.441-10.739.193-15.479-.518a10.907,10.907,0,0,0,1.806,4.129c4.112.875,9.634.341,12.124,2.839-1.835,2.446-6.255,1.647-9.8,1.289,0,.77.671.877.775,1.549.131.29.578.265,1.023.24.463-.025.926-.05,1.039.275h3.87c.233.54,1.457.091,1.548.774.812-.037.886.661,1.032,1.29-.669,1.339-3.784,1.22-5.417.773.5,1.305,1.649,1.963,2.578,2.839.649,1.242,2.16,1.623,2.839,2.837.67.048,1.115.708,1.547,1.032.536.4,1.267.631,1.548,1.29,1.36.533,1.888,1.9,3.353,2.322.159.358.994.039,1.032.515,3.408.2,6.721.5,10.062.776.71,0,1.427,0,2.143-.008a45.823,45.823,0,0,1,9.207.522,7.426,7.426,0,0,1,2.322,2.58c-.2,1.831.32,2.948.257,4.644h3.1c-.078-1.8.086-3.354,1.547-3.611C1018.93,1187.942,1019.621,1188.111,1019.834,1188.758Zm-17.284,2.063h1.291c-.365-.923-.056-2.523-.517-3.352h-.773A4.765,4.765,0,0,0,1002.55,1190.821Zm4.9-.257h3.355a13.076,13.076,0,0,1-.259-3.612c-1.35.113-2.261.662-3.87.517A5.877,5.877,0,0,0,1007.451,1190.564Zm-8.77-2.839c-.018.878-.081,1.8.515,2.065-.2-.618.437-2.076-.383-2.076A.86.86,0,0,0,998.681,1187.726Zm-3.354,1.806v-2.321h-1.29A2.758,2.758,0,0,0,995.327,1189.532Zm19.606-46.949c7.717-.023,14.17-1.311,22.185-1.033,5.207-1.158,11.451-1.277,16.253-2.839-.038-.639-.049-1.252.515-1.29.067-2.216-.1-4.2-1.031-5.417-.947-.674-2.863-.607-4.127-.258-1.116.433-1.124,1.973-2.837,1.806-1.945-1.107.036-2.848-.259-5.16a3.927,3.927,0,0,0-1.8-1.547c-1.606-.144-2.456.467-3.613.774a5.959,5.959,0,0,1-1.29,1.289c-.437.391-.693,1.1-1.548,1.031-1.7-.907.178-3.8-1.29-4.9-1.718,0-1.345,2.093-3.1,2.064-2.05-.787-.85-4.827-2.065-6.449-1.67-.48-3.809.378-5.159,1.032-.521,1.113-.351,2.918-2.064,2.837-2.209-.256-.557-2.813-1.292-4.385-1.275-1.529-4.425-1.931-6.706-1.032-.266.827.121,2.336-1.549,2.322-1.43-.032-.749-2.174-1.547-2.837a.894.894,0,0,0-.774.128.9.9,0,0,1-.775.129c-.694,1.026,1.453,1.774.518,3.1-.513,0-.329.7-1.032.517-1.408.119-1.423-1.156-2.321-1.547a2.583,2.583,0,0,1-1.549-.775,1.28,1.28,0,0,1-.945-.107,1.351,1.351,0,0,0-.6-.151,12.221,12.221,0,0,0-6.966,2.58c.228,1.319,1.1,2,1.29,3.352-.415.7-.714,1.523-1.805,1.549-1.358-.363-1.37-2.07-2.321-2.839-1.724-.949-5.093-1.6-6.966-.258.207,1.067,1.213,3.123-.258,3.612-.586.236-.556-.561-.774-.773-.327-.319-.765-.374-1.031-.774a1.593,1.593,0,0,1-1.6-.508,1.58,1.58,0,0,0-1.494-.524c-.6.174-.691.857-1.291,1.031-.3,1.678,1.115,1.636.775,3.354-.779.976-2.145.715-3.1,0-1.527-.021-2.657-.438-4.127-.517a4.849,4.849,0,0,1-2.065.259c-.616.758-1.626,1.122-1.8,2.32.535,1.013,2.075,1.021,1.8,2.839-1.1,1.205-2.494-.424-3.869-.516-2.453.384-5.63.045-5.416,3.094,12.45,1.654,22.775,5.43,36.888,5.42A77.129,77.129,0,0,0,1014.933,1142.582Zm7.223,30.182c-1.061-1.588,1.082-3.955,2.064-2.065a1.812,1.812,0,0,1-2.048,2.065Zm-2.557-5.807a.8.8,0,0,0-.538-.127c-1.112-1.336-.072-3.465.515-4.644a20.517,20.517,0,0,1,2.58-3.613c.091-.338.454-.4.515-.772h1.033c.766,1.858-.756,3.5-.774,5.418-1.043,1.193-.758,3.713-2.838,3.87l-.056,0A.835.835,0,0,1,1019.6,1166.957Zm6.169-5.027c-.884-3.146,1.32-5.368,2.321-7.483.209-.222.707-.153.773-.515,1.057-.112,1.348.544,1.807,1.031.112,2.005-.782,3-1.291,4.387a4.638,4.638,0,0,1-2.322,3.094C1026.565,1162.335,1026.409,1161.889,1025.768,1161.93Zm6.964-23.735c.791-.5,1.3-1.285,2.064-1.806h2.58c.991.7,3.316,1.251,2.321,3.1-1.278.818-2.145-.689-3.353-.773-1.737-.1-1.388,1.881-2.839,2.065C1032.2,1140.678,1032.5,1139.213,1032.732,1138.195Zm-16.252-1.289a9.105,9.105,0,0,0-2.579-.259,2.358,2.358,0,0,0-1.449.456c-.526.328-.972.655-1.645.318-.581-2.558,2.443-3.511,5.674-3.1,1.555.968,4.622,1.7,3.613,4.385-.1.009-.2.013-.292.013C1018.186,1138.723,1017.731,1137.5,1016.48,1136.906Zm-21.928-2.064c-.019-2.343,1.243-3.4,2.322-4.644a6.389,6.389,0,0,1,5.417.516c.555.649.968,1.438,1.549,2.063a1.823,1.823,0,0,1-.775,2.323c-.922-.194-1.638-.6-1.805-1.548-.981-.052-.979-1.085-2.064-1.031a2.347,2.347,0,0,0-1.805,1.29c-.426.607-.082,1.982-1.033,2.064a1.951,1.951,0,0,1-.419.05C995.115,1135.924,994.995,1135.222,994.552,1134.842Zm-11.609.257a1.978,1.978,0,0,0-1.181.108,2.083,2.083,0,0,1-.882.149,4.405,4.405,0,0,0-1.032-.773c.589-2.961,6.689-2.041,6.708.773a1.083,1.083,0,0,1-.893.4C984.851,1135.761,983.831,1135.164,982.943,1135.1Zm44.114-3.612a2.7,2.7,0,0,0-2.043.739c-.7.528-1.318,1.057-2.343.55-.694-1.868,1.621-2.81,2.839-3.611h3.094c.7.76,1.773,1.15,2.065,2.322.975.616.512,2.695-.517,2.838C1028.27,1134.23,1028.78,1131.742,1027.057,1131.488Zm-14.446-1.29c-.134-.641-.63-.92-1.031-1.291-1.777.031-1.44,2.172-3.353,2.063-1.1-.533-.709-1.893-.259-2.836a7.233,7.233,0,0,1,3.354-1.806c1.835.058,2.493,1.291,3.354,2.322v1.806c.077.595-.745.286-.775.773C1013.272,1131.084,1012.573,1131.01,1012.611,1130.2Zm33.845-22.36a26.661,26.661,0,0,0-4.952-.084,34.082,34.082,0,0,0-6.223-.265,34.628,34.628,0,0,1-6.161-.253c-8.042.241-17.3.552-25.281,0-8.465-.132-16.519-.678-24.766-1.031-3.952-.347-8.34-.259-12.64-.257-3.822-.478-8.3-.3-12.126-.774-1.039-1.6-.482-5.023.258-6.45,1.37-.779,4.005-.292,5.417-1.031a155.242,155.242,0,0,1,27.862,2.579c8.553,1.593,18.068,2.227,27.086,3.354,3.048-.012,6.007.069,8.964.15,3.906.107,7.813.214,11.931.109a7.883,7.883,0,0,0,3.166.258,16.936,16.936,0,0,1,1.993,0c.85.013,1.285.437,2.323.258a3.479,3.479,0,0,0,.973,0c.589-.052,1.177-.1,1.348.262a16.814,16.814,0,0,1,4.644.516c1.347.373,2.805.635,3.1,2.063a7.84,7.84,0,0,1-3.808.771C1048.572,1108.009,1047.525,1107.924,1046.456,1107.839Zm-90.083-7.566c.427.862-.273,2.852,1.29,2.579-.068-.792-.56-1.16-.774-1.8-.023-.364.022-.794-.362-.794A.722.722,0,0,0,956.373,1100.273Zm3.869,2.324c-.414-.877-.354-2.228-1.549-2.324h-.516C958.335,1101.578,958.646,1102.728,960.242,1102.6Zm2.955-.256a14.328,14.328,0,0,0,3.752-.261h6.191a2.859,2.859,0,0,1,.873,0c.536.052,1.071.1,1.191-.259-4.5-.659-9.537-.783-14.187-1.292-.116.975.507,1.212.773,1.807q.254,0,.512,0C962.6,1102.333,962.9,1102.336,963.2,1102.34Zm80.629-4.388a52.6,52.6,0,0,0-8-2.064,3.491,3.491,0,0,0-2.063-.516c-.452-.408-1.374-.346-2.065-.517a26.674,26.674,0,0,0-4.386-.516c-.058-.374-.545-.316-1.032-.258s-.975.114-1.031-.257c-1.037.178-1.472-.247-2.321-.258a2.176,2.176,0,0,1-1.1-.139,2.139,2.139,0,0,0-1.227-.118c-.106-.272-.5-.256-.9-.239-.414.017-.827.035-.91-.278a13.625,13.625,0,0,1-3.869,0c-.018-.37-.462-.314-.9-.258s-.885.111-.9-.258a2.308,2.308,0,0,0-.772,0c-.482.05-.964.1-1.033-.261-2.819-.1-5.023-.824-7.739-1.031-5.01-.839-10.043-1.652-15.221-2.321q-7.44-1.332-15.478-2.065c-.121-.365-.656-.312-1.191-.261a2.862,2.862,0,0,1-.873,0c-.272-.292-.85-.278-1.425-.265-.129,0-.257.006-.382.006a38.914,38.914,0,0,0-3.869-.517c-.306-.468-1.345-.2-1.805-.516a1.314,1.314,0,0,1-.836-.142,1.309,1.309,0,0,0-.97-.115c-.069-.361-.551-.311-1.032-.261a2.319,2.319,0,0,1-.774,0,1.014,1.014,0,0,1-.774-.258,1.007,1.007,0,0,0-.774-.257,10.181,10.181,0,0,1-2.064-3.613c-.145-1.778.654-2.614,1.29-3.611a1.827,1.827,0,0,1,.774-.517c4.525.377,8.438,1.364,12.641,2.065,1.975.519,4.163.822,6.192,1.289,1.139.063,1.879.528,3.1.517.726.477,2.181.227,2.837.774,8.379,1.338,16.421,3.013,24.25,4.9,4.254.649,7.952,1.852,12.126,2.58,1.842.652,4.015.973,5.933,1.548,1.9.512,4.107.71,5.675,1.548,1.994.5,4.134.854,5.676,1.806a16.626,16.626,0,0,1,2.837.773,14.1,14.1,0,0,1,2.58,1.032c2.173.232,3.583,1.232,5.675,1.547a15.108,15.108,0,0,0,2.58,1.032c.549.656,2.039.369,2.065,1.549a6.914,6.914,0,0,1-1.509.16C1048.426,1099.4,1046.048,1098.307,1043.826,1097.951Zm-67.5-14.3c.468.161.922.322,1.2-.145q-8.238-1.822-16.768-3.353c-.054-.312-.286-.16-.516,0a3.3,3.3,0,0,0,.775,2.322h3.869a.89.89,0,0,1,.773.128.9.9,0,0,0,.775.128h2.32a43.717,43.717,0,0,0,4.386.517,2.172,2.172,0,0,1,1.1.139,2.146,2.146,0,0,0,1.225.119.782.782,0,0,1,.167-.017A2.268,2.268,0,0,1,976.328,1083.65Z" transform="translate(-953.738 -1076.281)"/>
</svg>