<svg id="Layer_1" data-name="Layer 1" xmlns="http://www.w3.org/2000/svg" viewBox="0 0 128 128">
    <title>HEADPHONE</title>
    <path d="M119.67,88.689V74.715a1.75,1.75,0,0,0-1.75-1.75h-3.17V59.715a50.75,50.75,0,0,0-101.5,0v13.25H10.08a1.75,1.75,0,0,0-1.75,1.75V88.689A9.757,9.757,0,0,0,0,98.323v.25a9.761,9.761,0,0,0,9.75,9.75h3.428a9.759,9.759,0,0,0,8.913,5.814H35.663a6.663,6.663,0,0,0,13.087-1.77V84.528a6.663,6.663,0,0,0-13.087-1.77H31.417V74.715a1.75,1.75,0,0,0-1.75-1.75H26.75V59.715a37.032,37.032,0,0,1,6.824-21.451l1.907,1.908a6.7,6.7,0,0,0,4.753,1.953A6.809,6.809,0,0,0,45,40.194a27.225,27.225,0,0,1,38.007,0,6.8,6.8,0,0,0,9.516-.022l1.907-1.908a37.032,37.032,0,0,1,6.824,21.451v13.25H98.333a1.75,1.75,0,0,0-1.75,1.75v8.044H92.337a6.663,6.663,0,0,0-13.087,1.77v27.84a6.663,6.663,0,0,0,13.087,1.77h13.572a9.759,9.759,0,0,0,8.913-5.814h3.428a9.761,9.761,0,0,0,9.75-9.75v-.25A9.757,9.757,0,0,0,119.67,88.689ZM12.351,104.823H9.75a6.257,6.257,0,0,1-6.25-6.25v-.25a6.257,6.257,0,0,1,6.25-6.25h2.6c-.1,2.117-.01,4.256-.01,6.375S12.251,102.706,12.351,104.823ZM42.083,81.362a3.17,3.17,0,0,1,3.167,3.166v27.84a3.167,3.167,0,1,1-6.333,0V84.528A3.169,3.169,0,0,1,42.083,81.362Zm-6.666,29.275H22.091a6.324,6.324,0,0,1-6.25-6.25V92.509a6.335,6.335,0,0,1,6.25-6.25H35.417Zm-7.5-27.879c-1.906,0-3.814-.025-5.72,0a9.946,9.946,0,0,0-9.021,5.814H11.83V76.465H27.917ZM90.044,37.7a3.247,3.247,0,0,1-4.6-.011,30.727,30.727,0,0,0-42.892,0,3.248,3.248,0,0,1-4.6.011l-2.213-2.214a37.174,37.174,0,0,1,56.513,0Zm6.068-3.025a21.71,21.71,0,0,0-3-3.438A40.984,40.984,0,0,0,89.688,28.1a40.479,40.479,0,0,0-7.865-5.03,40.782,40.782,0,0,0-35.645,0,40.471,40.471,0,0,0-7.737,4.926A40.958,40.958,0,0,0,35,31.115a22.124,22.124,0,0,0-3.113,3.557A40.535,40.535,0,0,0,23.25,59.715v13.25h-6.5V59.715a47.25,47.25,0,0,1,94.5,0v13.25h-6.5V59.715A40.535,40.535,0,0,0,96.112,34.672Zm3.971,41.793H116.17V88.573h-1.347a9.947,9.947,0,0,0-9.021-5.814c-1.906-.027-3.814,0-5.72,0Zm-14.166,39.07a3.171,3.171,0,0,1-3.167-3.167V84.528a3.167,3.167,0,0,1,6.333,0v27.84A3.17,3.17,0,0,1,85.917,115.535Zm19.992-4.9H92.583V86.259h13.326a6.335,6.335,0,0,1,6.25,6.25v11.879A6.324,6.324,0,0,1,105.909,110.638ZM124.5,98.573a6.257,6.257,0,0,1-6.25,6.25h-2.6c.1-2.117.01-4.256.01-6.375s.09-4.258-.01-6.375h2.6a6.257,6.257,0,0,1,6.25,6.25Z" stroke="green"/>
</svg>
