<svg id="Layer_1" data-name="Layer 1" xmlns="http://www.w3.org/2000/svg" viewBox="0 0 128 128"><title>TELEVISION</title><path d="M120.25,25.627h-34.2l-7.091-8.163A9.745,9.745,0,0,0,71.6,14.107H68.518L80.679,3.024A1.75,1.75,0,0,0,78.321.437L64,13.49,49.679.437a1.75,1.75,0,0,0-2.357,2.587L59.482,14.107H56.4a9.744,9.744,0,0,0-7.361,3.356l-7.091,8.163H7.75A7.759,7.759,0,0,0,0,33.377v73.461a7.759,7.759,0,0,0,7.75,7.75H10V126.23a1.75,1.75,0,0,0,1.75,1.75h6.412a1.75,1.75,0,0,0,1.5-.852l7.5-12.54H100.84l7.5,12.54a1.749,1.749,0,0,0,1.5.852h6.412a1.75,1.75,0,0,0,1.75-1.75V114.588h2.25a7.759,7.759,0,0,0,7.75-7.75V33.377A7.759,7.759,0,0,0,120.25,25.627ZM51.686,19.759A6.247,6.247,0,0,1,56.4,17.607H71.6a6.247,6.247,0,0,1,4.719,2.151l5.1,5.868H46.588ZM17.169,124.48H13.5v-9.892h9.582Zm97.331,0h-3.669l-5.913-9.892H114.5Zm10-17.642a4.255,4.255,0,0,1-4.25,4.25H7.75a4.255,4.255,0,0,1-4.25-4.25V33.377a4.255,4.255,0,0,1,4.25-4.25h112.5a4.255,4.255,0,0,1,4.25,4.25Z"/><path d="M91.667,35.627H11.75A1.75,1.75,0,0,0,10,37.377v65.461a1.75,1.75,0,0,0,1.75,1.75H91.667a1.75,1.75,0,0,0,1.75-1.75V37.377A1.75,1.75,0,0,0,91.667,35.627Zm-1.75,65.461H13.5V39.127H89.917Z"/><path d="M109.5,62.544a9.528,9.528,0,0,0-6.7,2.747c-.021.019-.046.034-.066.054s-.035.045-.055.067A9.554,9.554,0,0,0,116.2,78.918c.02-.018.042-.031.061-.05s.032-.042.051-.062A9.554,9.554,0,0,0,109.5,62.544Zm6.062,9.563a6.023,6.023,0,0,1-.722,2.865l-8.206-8.206a6.059,6.059,0,0,1,8.928,5.34Zm-12.125,0a6.024,6.024,0,0,1,.722-2.866l8.206,8.206a6.059,6.059,0,0,1-8.928-5.34Z"/><path d="M117.312,35.627H101.687a1.75,1.75,0,0,0,0,3.5h15.625a1.75,1.75,0,0,0,0-3.5Z"/><path d="M117.312,42.691H101.687a1.75,1.75,0,0,0,0,3.5h15.625a1.75,1.75,0,0,0,0-3.5Z"/><path d="M117.312,49.755H101.687a1.75,1.75,0,0,0,0,3.5h15.625a1.75,1.75,0,0,0,0-3.5Z"/><path d="M116.262,88.264c-.021-.021-.045-.035-.066-.054a9.554,9.554,0,0,0-13.512,13.511c.02.022.034.046.055.067s.045.035.067.054a9.554,9.554,0,0,0,13.512-13.511C116.3,88.309,116.283,88.284,116.262,88.264Zm-6.762.7a6.024,6.024,0,0,1,2.866.722l-8.206,8.206a6.059,6.059,0,0,1,5.34-8.928Zm0,12.125a6.024,6.024,0,0,1-2.866-.722l8.206-8.206a6.059,6.059,0,0,1-5.34,8.928Z"/></svg>