<svg id="Layer_1" data-name="Layer 1" xmlns="http://www.w3.org/2000/svg" viewBox="0 0 48 48"><defs><style>.cls-1{fill:none;stroke:#000;stroke-linecap:round;stroke-linejoin:round;stroke-width:2px;}</style></defs><title>vegetables</title><line class="cls-1" x1="44" y1="23" x2="44" y2="43"/><line class="cls-1" x1="44" y1="24" x2="4" y2="24"/><line class="cls-1" x1="44" y1="42" x2="4" y2="42"/><line class="cls-1" x1="44" y1="33" x2="4" y2="33"/><line class="cls-1" x1="4" y1="23" x2="4" y2="43"/><path class="cls-1" d="M30.26,24c1.58-3.71,3.13-7.09,3.91-8.88a2.24,2.24,0,0,1,2-1.4,8.64,8.64,0,0,1,3.63.88A8.54,8.54,0,0,1,42.66,17a2.24,2.24,0,0,1,.06,2.46c-.61,1-1.53,2.63-2.62,4.51"/><line class="cls-1" x1="41.28" y1="11.75" x2="39.92" y2="14.43"/><line class="cls-1" x1="43.95" y1="13.12" x2="42.13" y2="16.68"/><line class="cls-1" x1="38.61" y1="10.39" x2="36.79" y2="13.95"/><line class="cls-1" x1="40.27" y1="21.34" x2="40.27" y2="21.34"/><line class="cls-1" x1="32.26" y1="20.62" x2="33.15" y2="21.07"/><path class="cls-1" d="M7.3,24c-3.44-7.33-4.38-13.93-2-15.13C7.76,7.58,13.09,13,17.15,20.92"/><path class="cls-1" d="M16.62,24c.52-2,1.29-4,2.41-5,0,0,.67,2.34,1.52,5"/><circle cx="10.64" cy="15.66" r="0.85" transform="translate(-5.97 6.57) rotate(-27.11)"/><circle cx="10.68" cy="19.46" r="0.85" transform="translate(-7.7 7) rotate(-27.11)"/><circle cx="9.18" cy="22.14" r="0.85" transform="translate(-9.08 6.62) rotate(-27.11)"/><circle cx="12.96" cy="20.2" r="0.85" transform="translate(-7.78 8.13) rotate(-27.11)"/><circle cx="7.21" cy="14.55" r="0.85" transform="translate(-5.84 4.88) rotate(-27.11)"/><circle cx="6.8" cy="11.89" r="0.85" transform="translate(-4.67 4.41) rotate(-27.11)"/><circle cx="8" cy="17.97" r="0.85" transform="translate(-7.31 5.62) rotate(-27.11)"/><path class="cls-1" d="M32.92,17.94h0A10.65,10.65,0,0,0,24,13.61a10.79,10.79,0,0,0-8.7,4"/><path class="cls-1" d="M24,13.61s-1.27-7-.63-7.61"/><line class="cls-1" x1="25.9" y1="6" x2="24.63" y2="12.98"/><path class="cls-1" d="M20.83,6s.91,7,2.36,7.61"/><rect class="cls-1" x="-287" y="-627" width="690" height="690"/></svg>