<svg width="70" height="70" viewBox="0 0 70 70" fill="none" xmlns="http://www.w3.org/2000/svg">
<g clip-path="url(#clip0)">
<path d="M51.3529 65.2705C50.6522 65.2705 50.0761 65.8036 50.0081 66.4864H39.8388L38.2345 56.8257L40.0177 55.0426C40.2711 54.7892 40.4135 54.4454 40.4135 54.0871C40.4135 53.7287 40.2711 53.385 40.0177 53.1315L38.4399 51.5537H41.136C44.0949 51.5537 46.8483 53.0223 48.5009 55.4823C48.9171 56.1018 49.7568 56.2665 50.3761 55.8505C50.9956 55.4342 51.1604 54.5946 50.7442 53.975C48.6056 50.7918 45.053 48.8823 41.2269 48.8523C42.536 47.4026 43.3345 45.4834 43.3345 43.381V41.399C43.3345 36.8925 39.6683 33.2263 35.1618 33.2263C30.6553 33.2263 26.9891 36.8925 26.9891 41.399V43.381C26.9891 45.484 27.7879 47.4034 29.0973 48.8533C22.7603 48.9022 17.6196 54.0707 17.6196 60.4191V67.8377C17.6196 68.584 18.2246 69.1891 18.971 69.1891H51.3526C52.099 69.1891 52.704 68.584 52.704 67.8377V66.6218C52.7042 65.8756 52.0992 65.2705 51.3529 65.2705ZM35.1776 56.0606L33.204 54.0871L35.1776 52.1136L37.1513 54.0871L35.1776 56.0606ZM34.4781 59.1264C34.6926 59.2564 34.9348 59.323 35.1775 59.323C35.4202 59.323 35.6625 59.2565 35.8768 59.1264L37.0991 66.4864H33.2558L34.4781 59.1264ZM29.6921 41.399C29.6921 38.3829 32.1458 35.929 35.1621 35.929C38.1783 35.929 40.6321 38.3827 40.6321 41.399V43.381C40.6321 46.3971 38.1783 48.851 35.1621 48.851C32.1458 48.851 29.6921 46.3972 29.6921 43.381V41.399ZM20.3226 60.4191C20.3226 55.5306 24.2996 51.5537 29.188 51.5537H31.915L30.3372 53.1315C30.0838 53.385 29.9414 53.7287 29.9414 54.0871C29.9414 54.4454 30.0838 54.7892 30.3372 55.0426L32.1204 56.8257L30.5161 66.4864H20.3225V60.4191H20.3226Z" fill="#3BB77E"/>
<path d="M28 1.5C28.4 1.5 37.5 1.83333 42 2V16.5L28 16V1.5Z" fill="#FDC040"/>
<path d="M60 2L53 15H68L61 2.5L60 2Z" fill="#FDC040"/>
<path d="M28 1.5C28.4 1.5 37.5 1.83333 42 2V16.5L28 16V1.5Z" stroke="black" stroke-linecap="round" stroke-linejoin="round"/>
<path d="M60 2L53 15H68L61 2.5L60 2Z" stroke="black" stroke-linecap="round" stroke-linejoin="round"/>
<path d="M17.8494 8.64185C17.8494 3.87725 13.973 0.0010376 9.20857 0.0010376C4.44411 0.0010376 0.567627 3.87739 0.567627 8.64185C0.567627 13.4063 4.44398 17.2827 9.20844 17.2827C13.9729 17.2827 17.8494 13.4064 17.8494 8.64185ZM3.27033 8.64185C3.27033 5.36766 5.93411 2.70374 9.20844 2.70374C12.4828 2.70374 15.1465 5.36766 15.1465 8.64185C15.1465 11.916 12.4828 14.58 9.20844 14.58C5.93411 14.58 3.27033 11.9162 3.27033 8.64185Z" fill="#3BB77E"/>
<path d="M27.8728 17.2819H42.4519C43.1982 17.2819 43.8032 16.6767 43.8032 15.9305V1.35147C43.8032 0.605257 43.1982 0.00012207 42.4519 0.00012207H27.8728C27.1265 0.00012207 26.5215 0.605257 26.5215 1.35147V15.9305C26.5215 16.6767 27.1265 17.2819 27.8728 17.2819ZM29.2242 2.70283H41.1005V14.5792H29.2242V2.70283Z" fill="#3BB77E"/>
<path d="M69.5758 14.7179L61.7783 1.21254C61.537 0.794433 61.0909 0.536865 60.6081 0.536865C60.1252 0.536865 59.6791 0.794433 59.4378 1.21254L51.6403 14.7179C51.3989 15.1361 51.3989 15.6512 51.6403 16.0693C51.8817 16.4874 52.3278 16.745 52.8106 16.745H68.4055C68.8883 16.745 69.3344 16.4874 69.5758 16.0693C69.8172 15.6512 69.8172 15.1361 69.5758 14.7179ZM55.1512 14.0423L60.6079 4.59092L66.0647 14.0423H55.1512Z" fill="#3BB77E"/>
<path d="M35.1622 30.5734C35.9086 30.5734 36.5136 29.9682 36.5136 29.222V25.3662L36.5683 25.4426C36.8322 25.8113 37.2471 26.0077 37.6684 26.0077C37.9406 26.0077 38.2155 25.9257 38.4538 25.7551C39.0607 25.3208 39.2006 24.4767 38.7663 23.8698L36.2613 20.3694C36.0075 20.0148 35.5983 19.8044 35.1624 19.8044C34.7264 19.8044 34.3172 20.0148 34.0634 20.3694L31.5584 23.8698C31.1241 24.4767 31.264 25.3208 31.8709 25.7551C32.4778 26.1894 33.3218 26.0497 33.7563 25.4427L33.8109 25.3662V29.222C33.8109 29.9684 34.4159 30.5734 35.1622 30.5734Z" fill="#3BB77E"/>
<path d="M24.036 41.518C24.036 40.7717 23.431 40.1666 22.6847 40.1666H10.5675V25.3662L10.6223 25.4426C10.8862 25.8113 11.301 26.0077 11.7224 26.0077C11.9945 26.0077 12.2694 25.9257 12.5078 25.7551C13.1147 25.3208 13.2545 24.4767 12.8202 23.8698L10.3152 20.3694C10.0614 20.0148 9.65225 19.8044 9.21631 19.8044C8.78036 19.8044 8.37117 20.0148 8.11739 20.3694L5.61239 23.8698C5.17806 24.4767 5.31793 25.3208 5.92482 25.7551C6.53158 26.1894 7.37577 26.0497 7.81023 25.4427L7.86482 25.3662V41.518C7.86482 42.2642 8.46982 42.8693 9.21617 42.8693H22.6847C23.4309 42.8693 24.036 42.2643 24.036 41.518Z" fill="#3BB77E"/>
<path d="M62.2071 20.3693C61.9533 20.0147 61.5441 19.8043 61.1082 19.8043C60.6723 19.8043 60.2631 20.0147 60.0093 20.3693L57.5043 23.8697C57.07 24.4766 57.2098 25.3207 57.8167 25.755C58.4236 26.1893 59.2678 26.0496 59.7021 25.4426L59.7568 25.3662V40.1666H47.6397C46.8933 40.1666 46.2883 40.7718 46.2883 41.518C46.2883 42.2642 46.8933 42.8693 47.6397 42.8693H61.1082C61.8545 42.8693 62.4595 42.2642 62.4595 41.518V25.3662L62.5143 25.4426C62.7782 25.8113 63.1931 26.0077 63.6144 26.0077C63.8866 26.0077 64.1614 25.9257 64.3998 25.7551C65.0067 25.3208 65.1466 24.4768 64.7123 23.8699L62.2071 20.3693Z" fill="#3BB77E"/>
<path d="M51.3526 61.8923C52.0989 61.8923 52.7039 61.2873 52.7039 60.541C52.7039 59.7947 52.0989 59.1896 51.3526 59.1896C50.6062 59.1896 50.0012 59.7947 50.0012 60.541C50.0012 61.2873 50.6062 61.8923 51.3526 61.8923Z" fill="#3BB77E"/>
</g>
<defs>
<clipPath id="clip0">
<rect width="69.1892" height="69.1892" fill="white" transform="translate(0.567627)"/>
</clipPath>
</defs>
</svg>
